# xmcd
#
# Track frame offsets: 
#        151
#        9997
#        19859
#        27544
#        34888
#        46868
#        57863
#        65041
#        73705
#        86840
#        95636
#        102078
#        111973
#        123455
#        137362
#        148379
#        157714
#        166804
#        180650
#        189713
#        198926
#        210675
#        217057
#        227723
#        243542
#
# Disc length: 3321 seconds
#
# Revision: 0
# Processed by: cddbd v1.5.2PL0 Copyright (c) Steve Scherf et al.
# Submitted via: ExactAudioCopy v1.0b3
#
DISCID=6b0cf719
DTITLE=Hylo Brown - Rural Rhythm Best of Hylo Brown Essential Original
DTITLE=Masters
DYEAR=2006
DGENRE=Bluegrass
TTITLE0=Lonesome Road Blues
TTITLE1=Walking Cane
TTITLE2=Wild Bill Jones
TTITLE3=Froggie Went a Courtin'
TTITLE4=All the Good Times Are PAst and Gone
TTITLE5=Chain Gange Blues
TTITLE6=The Prisoner Song
TTITLE7=Jacob's Ladder
TTITLE8=Little John Henry
TTITLE9=Lost to a Stranger
TTITLE10=Handsome Molly
TTITLE11=Preacher and the Bear
TTITLE12=The Picture on the Wall
TTITLE13=Sunny Tennessee
TTITLE14=Foolish Pride
TTITLE15=Lonely Tombs
TTITLE16=Ground Hog
TTITLE17=Girl in the Blue Velvet Band
TTITLE18=Weeping Willow
TTITLE19=Are You Tired of Me Darling
TTITLE20=Sitting On Top of the World
TTITLE21=Intoxicated Rat
TTITLE22=Mole in the Ground
TTITLE23=I'll Be All Smiles Tonight
TTITLE24=I'm Comin' Back But I Don't Know When
EXTD=
EXTT0=
EXTT1=
EXTT2=
EXTT3=
EXTT4=
EXTT5=
EXTT6=
EXTT7=
EXTT8=
EXTT9=
EXTT10=
EXTT11=
EXTT12=
EXTT13=
EXTT14=
EXTT15=
EXTT16=
EXTT17=
EXTT18=
EXTT19=
EXTT20=
EXTT21=
EXTT22=
EXTT23=
EXTT24=
PLAYORDER=
